<?xml version="1.0" encoding="utf-8"?>
<!-- Generator: Adobe Illustrator 14.0.0, SVG Export Plug-In . SVG Version: 6.00 Build 43363)  -->
<!DOCTYPE svg PUBLIC "-//W3C//DTD SVG 1.1//EN" "http://www.w3.org/Graphics/SVG/1.1/DTD/svg11.dtd">
<svg version="1.1"
	 id="Layer_1" xmlns:inkscape="http://www.inkscape.org/namespaces/inkscape" xmlns:svg="http://www.w3.org/2000/svg" xmlns:dc="http://purl.org/dc/elements/1.1/" xmlns:cc="http://creativecommons.org/ns#" xmlns:rdf="http://www.w3.org/1999/02/22-rdf-syntax-ns#" xmlns:sodipodi="http://sodipodi.sourceforge.net/DTD/sodipodi-0.dtd"
	 xmlns="http://www.w3.org/2000/svg" xmlns:xlink="http://www.w3.org/1999/xlink" x="0px" y="0px" width="612px" height="792px"
	 viewBox="0 0 612 792" enable-background="new 0 0 612 792" xml:space="preserve">
<g>
	<defs>
		<rect id="SVGID_1_" width="612" height="644.5"/>
	</defs>
	<clipPath id="SVGID_2_">
		<use xlink:href="#SVGID_1_"  overflow="visible"/>
	</clipPath>
	<path clip-path="url(#SVGID_2_)" d="M306.049,13.407c-81.715,0-158.574,31.812-216.405,89.617C31.839,160.828,0,237.711,0,319.48
		c-0.055,81.77,31.761,158.651,89.592,216.456c57.806,57.805,134.662,89.619,216.404,89.619c81.796,0,158.705-31.842,216.51-89.673
		c119.352-119.325,119.3-313.507,0-432.859C464.701,45.244,387.818,13.407,306.049,13.407z M306.049,65.389
		c67.865,0,131.672,26.433,179.705,74.387c99.054,99.08,99.054,260.279,0,359.357c-48.033,48.006-111.842,74.438-179.758,74.438
		c-67.863,0-131.672-26.408-179.653-74.388c-47.955-47.979-74.36-111.813-74.36-179.703s26.434-131.699,74.413-179.705
		C174.377,91.822,238.187,65.389,306.049,65.389z M233.713,221.148c-6.647,0-13.294,2.541-18.375,7.623
		c-10.162,10.163-10.162,26.59,0,36.752l53.983,53.984l-53.983,53.983c-10.162,10.163-10.162,26.588,0,36.75
		c5.068,5.067,11.722,7.616,18.375,7.616c6.654,0,13.307-2.549,18.375-7.616l53.983-53.983l53.983,53.983
		c5.068,5.067,11.723,7.616,18.378,7.616c6.652,0,13.307-2.549,18.375-7.616c10.162-10.162,10.162-26.588,0-36.75l-53.983-53.983
		l53.983-53.984c10.162-10.162,10.162-26.59,0-36.752c-10.163-10.164-26.591-10.164-36.753,0l-53.983,53.983l-53.983-53.983
		C247.007,223.689,240.36,221.148,233.713,221.148z"/>
</g>
</svg>
