<?xml version="1.0" encoding="utf-8"?>
<!-- Generator: Adobe Illustrator 14.0.0, SVG Export Plug-In . SVG Version: 6.00 Build 43363)  -->
<!DOCTYPE svg PUBLIC "-//W3C//DTD SVG 1.1//EN" "http://www.w3.org/Graphics/SVG/1.1/DTD/svg11.dtd">
<svg version="1.1" id="Layer_1" xmlns="http://www.w3.org/2000/svg" xmlns:xlink="http://www.w3.org/1999/xlink" x="0px" y="0px"
	 width="612px" height="792px" viewBox="0 0 612 792" enable-background="new 0 0 612 792" xml:space="preserve">
<g>
	<defs>
		<rect id="SVGID_1_" x="19.5" y="20.5" width="579" height="597"/>
	</defs>
	<clipPath id="SVGID_2_">
		<use xlink:href="#SVGID_1_"  overflow="visible"/>
	</clipPath>
	<g clip-path="url(#SVGID_2_)">
		<g>
			<path d="M472.464,375.192L472.464,375.192c-6.12,3.672-12.24,6.12-18.972,8.568c-74.052,33.66-73.44,149.328-73.44,155.448
				c0,1.224,0.612,2.448,0.612,3.672c0,28.152-21.42,53.856-49.572,56.916c-28.152,3.061-54.468-15.912-59.976-43.452
				c-3.672-15.3-3.672-93.636,30.6-166.464h-1.836c7.344-9.792,12.24-21.42,12.24-33.66c0-14.688-6.12-28.152-15.3-37.944
				c25.092-3.672,42.228-25.092,42.228-55.08c0-19.584-10.404-36.72-25.704-46.512c14.688-9.792,24.48-26.928,24.48-45.9
				c0-30.6-25.092-55.692-55.692-55.692c8.568-9.792,14.688-22.644,14.688-36.72s-5.508-26.928-14.688-37.332H416.16
				c63.036,0,113.832,50.796,113.832,113.832v121.176C530.604,318.276,506.736,355.608,472.464,375.192z"/>
			<path d="M241.128,115.092h-59.364c-20.196,0-36.72-16.524-36.72-36.72c0-20.196,16.524-37.332,36.72-37.332h39.78h20.196
				c20.196,0,36.72,16.524,36.72,37.332C278.46,98.568,261.936,115.092,241.128,115.092z"/>
			<path d="M241.128,133.452h41.004c20.196,0,36.72,16.524,36.72,36.72c0,20.196-16.523,36.72-36.72,36.72h-162.18h-1.224
				c-20.196,0-37.332-16.524-37.332-36.72c0-20.196,16.524-36.72,37.332-36.72h63.036H241.128z"/>
			<path d="M119.952,226.476h162.792h1.224c20.196,0,36.72,16.524,36.72,36.72c0,20.196-11.016,37.332-31.823,37.332h-5.508h-27.54
				H162.18h-42.228c-20.196,0-37.332-16.524-37.332-37.332C82.62,243,99.144,226.476,119.952,226.476z"/>
			<path d="M256.428,318.888c20.196,0,36.72,16.524,36.72,37.332c0,20.196-16.524,36.72-36.72,36.72H162.18
				c-20.196,0-36.72-16.524-36.72-36.72c0-20.808,16.524-37.332,36.72-37.332H256.428z"/>
		</g>
	</g>
</g>
</svg>
