<?xml version="1.0" encoding="utf-8"?>
<!-- Generator: Adobe Illustrator 14.0.0, SVG Export Plug-In . SVG Version: 6.00 Build 43363)  -->
<!DOCTYPE svg PUBLIC "-//W3C//DTD SVG 1.1//EN" "http://www.w3.org/Graphics/SVG/1.1/DTD/svg11.dtd">
<svg version="1.1" id="Layer_1" xmlns="http://www.w3.org/2000/svg" xmlns:xlink="http://www.w3.org/1999/xlink" x="0px" y="0px"
	 width="612px" height="792px" viewBox="0 0 612 792" enable-background="new 0 0 612 792" xml:space="preserve">
<g>
	<defs>
		<rect id="SVGID_1_" x="20.5" y="38.5" width="569" height="569"/>
	</defs>
	<clipPath id="SVGID_2_">
		<use xlink:href="#SVGID_1_"  overflow="visible"/>
	</clipPath>
	<g clip-path="url(#SVGID_2_)">
		<g>
			<path d="M460.952,267.205c-0.03,0-0.03-0.031-0.03-0.031c-5.68-3.176-11.665-5.826-17.944-7.943
				c-70.307-31.916-69.713-141.58-69.614-147.284c0.116-1.175,0.385-2.264,0.385-3.47c0-26.854-20.354-51.004-47.068-53.978
				c-26.665-2.889-51.359,14.939-57.155,41.12c-3.176,14.382-3.703,89.101,29.033,157.7h-0.734
				c6.793,8.886,10.973,19.884,10.973,31.916c0,13.855-5.441,26.389-14.278,35.771c24.076,3.562,40.343,23.917,40.343,52.124
				c0,18.562-9.676,34.89-24.224,44.333c13.941,9.468,23.146,25.416,23.146,43.562c0,29.094-23.648,52.742-52.651,52.803
				c8.397,9.382,13.666,21.616,13.666,35.178c0,13.446-5.263,25.741-13.666,35.099h126.959c59.64,0,108.03-48.391,108.03-108.043
				V361.367C516.118,320.975,493.854,285.767,460.952,267.205z"/>
			<path d="M241.979,513.828h-56.463c-19.388,0-35.11,15.68-35.11,35.178c0,19.297,15.722,35.099,35.11,35.099h37.491h18.972
				c19.413,0,35.08-15.796,35.08-35.099C277.059,529.508,261.391,513.828,241.979,513.828z"/>
			<path d="M241.979,496.117h38.991c19.431,0,35.123-15.71,35.123-35.099c0-19.382-15.691-35.122-35.123-35.122h-154.2h-1.089
				c-19.4,0-35.092,15.74-35.092,35.122c0,19.389,15.691,35.099,35.092,35.099h59.835H241.979z"/>
			<path d="M126.77,408.222h154.2h1.089c19.419,0,35.123-15.734,35.123-35.092c0-19.388-10.723-35.123-30.104-35.123h-5.013H256.03
				h-89.211H126.77c-19.37,0-35.123,15.734-35.123,35.123C91.647,392.487,107.4,408.222,126.77,408.222z"/>
			<path d="M256.024,320.326c19.339,0,35.123-15.765,35.123-35.092c0-19.382-15.783-35.153-35.123-35.153h-89.205
				c-19.382,0-35.092,15.771-35.092,35.153c0,19.327,15.71,35.092,35.092,35.092H256.024z"/>
		</g>
	</g>
</g>
</svg>
